<svg xmlns="http://www.w3.org/2000/svg" viewBox="0 0 256 256"><path fill="#fea832" d="m135-1-7 1v65c3 9-3 13-12 12-22 4-41 26-40 49-4 28 23 56 52 54v-22c1-4 0-6-3-7l-9-3c-3-1-5-2-6-5-13-13 0-39 18-38V76l19 3c9 5 18 9 23 19 10 11 13 29 8 44-1 10-8 17-14 24-10 8-22 16-36 14v73c5 7 25 5 23-8 4-8 0-20 10-26 9-3 15-8 24 2 8 7 15 14 23 7l20-19c8-11-10-21-14-32 0 0 3-24 14-23 9-3 22 0 28-9v-16c-1-8 3-17-4-23l-29-5c-4-7-13-19-5-27 5-9 20-20 7-30-9-6-16-25-29-16-9 5-18 16-28 11-11-1-16-10-16-21 2-12-7-19-17-19Z"/><path fill="#fd9923" d="M130 76h-2v20c0 3-1 6 1 9l1 1a23 23 0 0 1 8 2l3 1v1a23 23 0 0 1 10 19 23 23 0 0 1-3 10v1l-1 1a23 23 0 0 1-18 10l-1 1v28c8 1 17-1 24-6 17-7 28-24 28-42 2-20-9-39-25-49-8-4-17-7-25-7z"/><path fill="#fc3" stroke="#fc3" d="M112 0h16v75c-6 1-12 1-18 4-9 2-14 9-21 14-7 7-11 16-13 26-2 4 0 8-1 12 2 6 1 13 5 18 3 5 4 12 10 15 6 7 15 12 24 15 4 0 9 3 13 1 2 5 0 12 1 17v59h-17c-5-2-5-7-5-11l-5-24c-7-1-13-5-20-8l-24 17c-5 3-7-2-10-5l-21-20c-2-5 3-8 5-12l12-18c-7-7-3-23-16-21-7-2-15-2-22-5-5-1-6-6-5-10v-27c3-4 6-7 11-7l24-4c1-7 5-13 8-20L26 57c-3-5 2-7 5-10 7-7 13-15 21-21 5-2 8 3 12 5l18 12c6-7 22-4 20-16 2-7 2-15 5-23l5-4Z"/></svg>
